<mxfile host="app.diagrams.net" modified="2022-03-06T18:34:04.178Z" agent="5.0 (X11; Linux x86_64) AppleWebKit/537.36 (KHTML, like Gecko) Chrome/98.0.4758.102 Safari/537.36" etag="vjzBL2KxcMyfj0swAqZA" version="16.6.2" type="github">
  <diagram id="DqS_HctV4Sts_Ocj0qoi" name="Page-1">
    <mxGraphModel dx="1871" dy="838" grid="1" gridSize="10" guides="1" tooltips="1" connect="1" arrows="1" fold="1" page="1" pageScale="1" pageWidth="1169" pageHeight="827" math="0" shadow="0">
      <root>
        <mxCell id="0" />
        <mxCell id="1" parent="0" />
        <mxCell id="ir83M_2iYfYtX5Gf1_10-1" value="" style="rounded=0;whiteSpace=wrap;html=1;" vertex="1" parent="1">
          <mxGeometry x="280" y="40" width="520" height="800" as="geometry" />
        </mxCell>
        <mxCell id="ir83M_2iYfYtX5Gf1_10-2" value="User/App" style="shape=umlActor;verticalLabelPosition=bottom;verticalAlign=top;html=1;outlineConnect=0;" vertex="1" parent="1">
          <mxGeometry x="330" y="46" width="30" height="60" as="geometry" />
        </mxCell>
        <mxCell id="ir83M_2iYfYtX5Gf1_10-9" value="查询编译器" style="rounded=0;whiteSpace=wrap;html=1;" vertex="1" parent="1">
          <mxGeometry x="310" y="192" width="100" height="60" as="geometry" />
        </mxCell>
        <mxCell id="ir83M_2iYfYtX5Gf1_10-10" value="事务管理器" style="rounded=0;whiteSpace=wrap;html=1;" vertex="1" parent="1">
          <mxGeometry x="490" y="192" width="100" height="60" as="geometry" />
        </mxCell>
        <mxCell id="ir83M_2iYfYtX5Gf1_10-11" value="DDL编译器" style="rounded=0;whiteSpace=wrap;html=1;" vertex="1" parent="1">
          <mxGeometry x="660" y="192" width="100" height="60" as="geometry" />
        </mxCell>
        <mxCell id="ir83M_2iYfYtX5Gf1_10-12" value="DBA" style="shape=umlActor;verticalLabelPosition=bottom;verticalAlign=top;html=1;outlineConnect=0;" vertex="1" parent="1">
          <mxGeometry x="695" y="46" width="30" height="60" as="geometry" />
        </mxCell>
        <mxCell id="ir83M_2iYfYtX5Gf1_10-14" value="执行引擎" style="rounded=0;whiteSpace=wrap;html=1;" vertex="1" parent="1">
          <mxGeometry x="310" y="312" width="100" height="60" as="geometry" />
        </mxCell>
        <mxCell id="ir83M_2iYfYtX5Gf1_10-15" value="日志与恢复" style="rounded=0;whiteSpace=wrap;html=1;" vertex="1" parent="1">
          <mxGeometry x="490" y="312" width="100" height="60" as="geometry" />
        </mxCell>
        <mxCell id="ir83M_2iYfYtX5Gf1_10-16" value="并发控制" style="rounded=0;whiteSpace=wrap;html=1;" vertex="1" parent="1">
          <mxGeometry x="660" y="312" width="100" height="60" as="geometry" />
        </mxCell>
        <mxCell id="ir83M_2iYfYtX5Gf1_10-17" value="索引/文件/记录管理器" style="rounded=0;whiteSpace=wrap;html=1;" vertex="1" parent="1">
          <mxGeometry x="310" y="430" width="100" height="60" as="geometry" />
        </mxCell>
        <mxCell id="ir83M_2iYfYtX5Gf1_10-18" value="缓冲区管理器" style="rounded=0;whiteSpace=wrap;html=1;" vertex="1" parent="1">
          <mxGeometry x="310" y="532" width="100" height="60" as="geometry" />
        </mxCell>
        <mxCell id="ir83M_2iYfYtX5Gf1_10-19" value="存储管理器" style="rounded=0;whiteSpace=wrap;html=1;" vertex="1" parent="1">
          <mxGeometry x="310" y="632" width="100" height="60" as="geometry" />
        </mxCell>
        <mxCell id="ir83M_2iYfYtX5Gf1_10-20" value="存储" style="shape=cylinder3;whiteSpace=wrap;html=1;boundedLbl=1;backgroundOutline=1;size=15;" vertex="1" parent="1">
          <mxGeometry x="330" y="747" width="60" height="80" as="geometry" />
        </mxCell>
        <mxCell id="ir83M_2iYfYtX5Gf1_10-21" value="缓冲区" style="rounded=0;whiteSpace=wrap;html=1;" vertex="1" parent="1">
          <mxGeometry x="490" y="532" width="100" height="60" as="geometry" />
        </mxCell>
        <mxCell id="ir83M_2iYfYtX5Gf1_10-22" value="锁表" style="rounded=0;whiteSpace=wrap;html=1;" vertex="1" parent="1">
          <mxGeometry x="660" y="430" width="100" height="60" as="geometry" />
        </mxCell>
      </root>
    </mxGraphModel>
  </diagram>
</mxfile>
